<svg xmlns="http://www.w3.org/2000/svg" width="900" height="200" viewBox="0 0 900 200">
  <g transform="translate(20,28) scale(1.5)">
  <defs>
    <radialGradient id="nc-bg" cx="0.5" cy="0.3" r="1"><stop offset="0" stop-color="#1B3054"></stop><stop offset="1" stop-color="#070E1A"></stop></radialGradient>
    <linearGradient id="nc-b" x1="0" y1="0" x2="0" y2="1"><stop offset="0" stop-color="#6FA5FF"></stop><stop offset="1" stop-color="#2E6BE0"></stop></linearGradient>
    <linearGradient id="nc-o" x1="0" y1="0" x2="0" y2="1"><stop offset="0" stop-color="#FFB35C"></stop><stop offset="1" stop-color="#EA6A0B"></stop></linearGradient>
  </defs>
  <rect x="2" y="2" width="92" height="92" rx="21" fill="#02060D"></rect>
  <rect x="4.5" y="4.5" width="87" height="87" rx="18.5" fill="url(#nc-bg)"></rect>
  <rect x="4.5" y="4.5" width="87" height="87" rx="18.5" fill="none" stroke="#93C5FD" stroke-opacity="0.18" stroke-width="1"></rect>
  <rect x="11.5" y="11.5" width="35" height="73" rx="9.5" fill="#1E4FB8"></rect>
  <rect x="13" y="13" width="32" height="70" rx="8" fill="url(#nc-b)"></rect>
  <rect x="49.5" y="11.5" width="35" height="73" rx="9.5" fill="#B85306"></rect>
  <rect x="51" y="13" width="32" height="70" rx="8" fill="url(#nc-o)"></rect>
  <g fill="#FFFFFF" opacity="0.5">
    <rect x="21" y="31" width="16" height="5" rx="2.5"></rect>
    <rect x="21" y="45.5" width="16" height="5" rx="2.5"></rect>
    <rect x="21" y="60" width="16" height="5" rx="2.5"></rect>
    <rect x="59" y="31" width="16" height="5" rx="2.5"></rect>
    <rect x="59" y="45.5" width="16" height="5" rx="2.5"></rect>
    <rect x="59" y="60" width="16" height="5" rx="2.5"></rect>
  </g>
</g>
  <text x="200" y="105" font-family="Archivo, Arial, sans-serif" font-weight="800" font-size="64" letter-spacing="-1.5"><tspan fill="#EAF2FB">Newt </tspan><tspan fill="#F97316">Commander</tspan></text>
  <text x="203" y="145" font-family="Archivo, Arial, sans-serif" font-weight="600" font-size="19" letter-spacing="9" fill="#8FA6C4">TWO-PANE FILE MANAGER</text>
</svg>